<mxfile host="app.diagrams.net" modified="2022-01-18T06:42:53.668Z" agent="5.0 (Windows NT 10.0; Win64; x64) AppleWebKit/537.36 (KHTML, like Gecko) Chrome/97.0.4692.71 Safari/537.36" etag="pHGPfaewt6yehqnMwZlh" version="16.2.7" type="github">
  <diagram id="ZJvvMEEN9li1mQhJDmkr" name="Page-1">
    <mxGraphModel dx="1597" dy="3242" grid="1" gridSize="10" guides="1" tooltips="1" connect="1" arrows="1" fold="1" page="1" pageScale="1" pageWidth="1654" pageHeight="2336" background="#ffffff" math="0" shadow="1">
      <root>
        <mxCell id="0" />
        <mxCell id="1" parent="0" />
        <mxCell id="QLm1vupBQiNg1NUSUBey-1" value="&lt;b&gt;&lt;font style=&quot;font-size: 18px&quot;&gt;Metrices Source&lt;/font&gt;&lt;/b&gt;" style="rounded=0;whiteSpace=wrap;html=1;" parent="1" vertex="1">
          <mxGeometry x="20" y="-90" width="180" height="100" as="geometry" />
        </mxCell>
        <mxCell id="QLm1vupBQiNg1NUSUBey-3" value="" style="rounded=0;whiteSpace=wrap;html=1;" parent="1" vertex="1">
          <mxGeometry x="20" y="240" width="310" height="200" as="geometry" />
        </mxCell>
        <mxCell id="QLm1vupBQiNg1NUSUBey-5" value="&lt;span style=&quot;font-size: 18px&quot;&gt;&lt;b&gt;Kafka&lt;/b&gt;&lt;/span&gt;" style="strokeWidth=2;html=1;shape=mxgraph.flowchart.direct_data;whiteSpace=wrap;fillColor=#f8cecc;strokeColor=#b85450;" parent="1" vertex="1">
          <mxGeometry x="250" y="510" width="120" height="80" as="geometry" />
        </mxCell>
        <mxCell id="QLm1vupBQiNg1NUSUBey-8" value="" style="shape=cylinder3;whiteSpace=wrap;html=1;boundedLbl=1;backgroundOutline=1;size=15;fillColor=#dae8fc;strokeColor=#6c8ebf;" parent="1" vertex="1">
          <mxGeometry x="730" y="490" width="90" height="110" as="geometry" />
        </mxCell>
        <mxCell id="QLm1vupBQiNg1NUSUBey-9" value="&lt;h1&gt;Mongodb&lt;/h1&gt;" style="text;html=1;strokeColor=none;fillColor=none;spacing=5;spacingTop=-20;whiteSpace=wrap;overflow=hidden;rounded=0;" parent="1" vertex="1">
          <mxGeometry x="720" y="610" width="140" height="40" as="geometry" />
        </mxCell>
        <mxCell id="QLm1vupBQiNg1NUSUBey-10" value="&lt;b&gt;&lt;font style=&quot;font-size: 18px&quot;&gt;Metrices Collector&lt;/font&gt;&lt;/b&gt;" style="rounded=0;whiteSpace=wrap;html=1;" parent="1" vertex="1">
          <mxGeometry x="20" y="90" width="180" height="70" as="geometry" />
        </mxCell>
        <mxCell id="QLm1vupBQiNg1NUSUBey-13" value="&lt;b&gt;&lt;font style=&quot;font-size: 18px&quot;&gt;Consumer&lt;/font&gt;&lt;/b&gt;" style="rounded=0;whiteSpace=wrap;html=1;" parent="1" vertex="1">
          <mxGeometry x="20" y="500" width="170" height="85" as="geometry" />
        </mxCell>
        <mxCell id="QLm1vupBQiNg1NUSUBey-15" value="&lt;b&gt;&lt;font style=&quot;font-size: 18px&quot;&gt;Consumer&lt;/font&gt;&lt;/b&gt;" style="rounded=0;whiteSpace=wrap;html=1;" parent="1" vertex="1">
          <mxGeometry x="460" y="512.5" width="170" height="77.5" as="geometry" />
        </mxCell>
        <mxCell id="QLm1vupBQiNg1NUSUBey-16" value="&lt;span style=&quot;font-size: 18px&quot;&gt;&lt;b&gt;Query Service&lt;/b&gt;&lt;/span&gt;" style="rounded=0;whiteSpace=wrap;html=1;" parent="1" vertex="1">
          <mxGeometry x="900" y="515" width="180" height="70" as="geometry" />
        </mxCell>
        <mxCell id="QLm1vupBQiNg1NUSUBey-17" value="&lt;b&gt;&lt;font style=&quot;font-size: 24px&quot;&gt;Cache&lt;/font&gt;&lt;/b&gt;" style="rounded=0;whiteSpace=wrap;html=1;" parent="1" vertex="1">
          <mxGeometry x="895" y="650" width="190" height="90" as="geometry" />
        </mxCell>
        <mxCell id="QLm1vupBQiNg1NUSUBey-18" value="&lt;span style=&quot;font-size: 18px&quot;&gt;&lt;b&gt;Alert Syetem&lt;/b&gt;&lt;/span&gt;" style="rounded=0;whiteSpace=wrap;html=1;" parent="1" vertex="1">
          <mxGeometry x="880" y="180" width="170" height="80" as="geometry" />
        </mxCell>
        <mxCell id="QLm1vupBQiNg1NUSUBey-19" value="&lt;span style=&quot;font-size: 18px&quot;&gt;&lt;b&gt;Https Endpoints&lt;/b&gt;&lt;/span&gt;" style="rounded=0;whiteSpace=wrap;html=1;" parent="1" vertex="1">
          <mxGeometry x="1310" y="320" width="170" height="60" as="geometry" />
        </mxCell>
        <mxCell id="QLm1vupBQiNg1NUSUBey-20" value="&lt;span style=&quot;font-size: 18px&quot;&gt;&lt;b&gt;Email&lt;/b&gt;&lt;/span&gt;" style="rounded=0;whiteSpace=wrap;html=1;" parent="1" vertex="1">
          <mxGeometry x="1310" width="170" height="60" as="geometry" />
        </mxCell>
        <mxCell id="QLm1vupBQiNg1NUSUBey-27" style="edgeStyle=orthogonalEdgeStyle;rounded=0;orthogonalLoop=1;jettySize=auto;html=1;exitX=0.5;exitY=0;exitDx=0;exitDy=0;fontSize=18;" parent="1" source="QLm1vupBQiNg1NUSUBey-21" edge="1">
          <mxGeometry relative="1" as="geometry">
            <mxPoint x="1414.5384615384614" y="130" as="targetPoint" />
          </mxGeometry>
        </mxCell>
        <mxCell id="QLm1vupBQiNg1NUSUBey-21" value="&lt;span style=&quot;font-size: 18px&quot;&gt;&lt;b&gt;Text Message&lt;/b&gt;&lt;/span&gt;" style="rounded=0;whiteSpace=wrap;html=1;" parent="1" vertex="1">
          <mxGeometry x="1310" y="120" width="170" height="60" as="geometry" />
        </mxCell>
        <mxCell id="QLm1vupBQiNg1NUSUBey-22" value="&lt;span style=&quot;font-size: 18px&quot;&gt;&lt;b&gt;Page Duty&lt;/b&gt;&lt;/span&gt;" style="rounded=0;whiteSpace=wrap;html=1;" parent="1" vertex="1">
          <mxGeometry x="1310" y="220" width="170" height="60" as="geometry" />
        </mxCell>
        <mxCell id="QLm1vupBQiNg1NUSUBey-26" value="&lt;span style=&quot;font-size: 18px&quot;&gt;&lt;b&gt;Visualization System&lt;/b&gt;&lt;/span&gt;" style="rounded=0;whiteSpace=wrap;html=1;" parent="1" vertex="1">
          <mxGeometry x="1310" y="512.5" width="200" height="90" as="geometry" />
        </mxCell>
        <mxCell id="QLm1vupBQiNg1NUSUBey-29" value="" style="endArrow=classic;html=1;rounded=0;fontSize=18;entryX=0;entryY=0.5;entryDx=0;entryDy=0;exitX=0.647;exitY=0;exitDx=0;exitDy=0;exitPerimeter=0;" parent="1" source="QLm1vupBQiNg1NUSUBey-18" target="QLm1vupBQiNg1NUSUBey-20" edge="1">
          <mxGeometry width="50" height="50" relative="1" as="geometry">
            <mxPoint x="980" y="140" as="sourcePoint" />
            <mxPoint x="780" y="320" as="targetPoint" />
          </mxGeometry>
        </mxCell>
        <mxCell id="QLm1vupBQiNg1NUSUBey-30" value="" style="endArrow=classic;html=1;rounded=0;fontSize=18;entryX=0;entryY=0.5;entryDx=0;entryDy=0;exitX=1;exitY=0.25;exitDx=0;exitDy=0;" parent="1" source="QLm1vupBQiNg1NUSUBey-18" target="QLm1vupBQiNg1NUSUBey-21" edge="1">
          <mxGeometry width="50" height="50" relative="1" as="geometry">
            <mxPoint x="1050" y="160" as="sourcePoint" />
            <mxPoint x="1210" y="30" as="targetPoint" />
          </mxGeometry>
        </mxCell>
        <mxCell id="QLm1vupBQiNg1NUSUBey-32" value="" style="endArrow=classic;html=1;rounded=0;fontSize=18;entryX=0;entryY=0.5;entryDx=0;entryDy=0;" parent="1" target="QLm1vupBQiNg1NUSUBey-22" edge="1">
          <mxGeometry width="50" height="50" relative="1" as="geometry">
            <mxPoint x="1050" y="230" as="sourcePoint" />
            <mxPoint x="1190" y="230" as="targetPoint" />
          </mxGeometry>
        </mxCell>
        <mxCell id="QLm1vupBQiNg1NUSUBey-33" value="" style="endArrow=classic;html=1;rounded=0;fontSize=18;entryX=0;entryY=0.75;entryDx=0;entryDy=0;exitX=0.75;exitY=1;exitDx=0;exitDy=0;" parent="1" source="QLm1vupBQiNg1NUSUBey-18" target="QLm1vupBQiNg1NUSUBey-19" edge="1">
          <mxGeometry width="50" height="50" relative="1" as="geometry">
            <mxPoint x="989.9899999999998" y="160" as="sourcePoint" />
            <mxPoint x="1210" y="30" as="targetPoint" />
          </mxGeometry>
        </mxCell>
        <mxCell id="QLm1vupBQiNg1NUSUBey-34" value="" style="endArrow=none;html=1;rounded=0;fontSize=18;entryX=0.5;entryY=1;entryDx=0;entryDy=0;" parent="1" target="QLm1vupBQiNg1NUSUBey-18" edge="1">
          <mxGeometry width="50" height="50" relative="1" as="geometry">
            <mxPoint x="965" y="330" as="sourcePoint" />
            <mxPoint x="770" y="280" as="targetPoint" />
          </mxGeometry>
        </mxCell>
        <mxCell id="QLm1vupBQiNg1NUSUBey-35" value="&lt;h1&gt;Send&amp;nbsp; Queries&lt;/h1&gt;" style="text;html=1;strokeColor=none;fillColor=none;spacing=5;spacingTop=-20;whiteSpace=wrap;overflow=hidden;rounded=0;" parent="1" vertex="1">
          <mxGeometry x="875" y="330" width="180" height="40" as="geometry" />
        </mxCell>
        <mxCell id="QLm1vupBQiNg1NUSUBey-36" value="" style="endArrow=classic;html=1;rounded=0;fontSize=18;entryX=0.38;entryY=-0.02;entryDx=0;entryDy=0;entryPerimeter=0;" parent="1" target="QLm1vupBQiNg1NUSUBey-16" edge="1">
          <mxGeometry width="50" height="50" relative="1" as="geometry">
            <mxPoint x="968" y="370" as="sourcePoint" />
            <mxPoint x="980" y="480" as="targetPoint" />
          </mxGeometry>
        </mxCell>
        <mxCell id="QLm1vupBQiNg1NUSUBey-39" value="" style="endArrow=classic;html=1;rounded=1;fontSize=24;entryX=0.5;entryY=0;entryDx=0;entryDy=0;exitX=0.5;exitY=1;exitDx=0;exitDy=0;" parent="1" source="QLm1vupBQiNg1NUSUBey-16" target="QLm1vupBQiNg1NUSUBey-17" edge="1">
          <mxGeometry width="50" height="50" relative="1" as="geometry">
            <mxPoint x="690" y="480" as="sourcePoint" />
            <mxPoint x="740" y="430" as="targetPoint" />
          </mxGeometry>
        </mxCell>
        <mxCell id="QLm1vupBQiNg1NUSUBey-40" value="" style="endArrow=classic;html=1;rounded=1;fontSize=24;exitX=1;exitY=0.5;exitDx=0;exitDy=0;exitPerimeter=0;entryX=0;entryY=0.5;entryDx=0;entryDy=0;" parent="1" source="QLm1vupBQiNg1NUSUBey-5" target="QLm1vupBQiNg1NUSUBey-15" edge="1">
          <mxGeometry width="50" height="50" relative="1" as="geometry">
            <mxPoint x="690" y="480" as="sourcePoint" />
            <mxPoint x="440" y="550" as="targetPoint" />
          </mxGeometry>
        </mxCell>
        <mxCell id="QLm1vupBQiNg1NUSUBey-41" value="" style="endArrow=classic;html=1;rounded=1;fontSize=24;exitX=1;exitY=0.5;exitDx=0;exitDy=0;exitPerimeter=0;" parent="1" edge="1">
          <mxGeometry width="50" height="50" relative="1" as="geometry">
            <mxPoint x="630" y="550.54" as="sourcePoint" />
            <mxPoint x="730" y="551" as="targetPoint" />
          </mxGeometry>
        </mxCell>
        <mxCell id="QLm1vupBQiNg1NUSUBey-44" value="" style="endArrow=classic;html=1;rounded=1;fontSize=24;entryX=0.571;entryY=-0.006;entryDx=0;entryDy=0;entryPerimeter=0;" parent="1" target="QLm1vupBQiNg1NUSUBey-13" edge="1">
          <mxGeometry width="50" height="50" relative="1" as="geometry">
            <mxPoint x="117" y="450" as="sourcePoint" />
            <mxPoint x="120" y="490" as="targetPoint" />
          </mxGeometry>
        </mxCell>
        <mxCell id="QLm1vupBQiNg1NUSUBey-45" value="" style="endArrow=classic;html=1;rounded=1;fontSize=24;" parent="1" edge="1" source="QLm1vupBQiNg1NUSUBey-10">
          <mxGeometry width="50" height="50" relative="1" as="geometry">
            <mxPoint x="112.31" y="240" as="sourcePoint" />
            <mxPoint x="110" y="240" as="targetPoint" />
          </mxGeometry>
        </mxCell>
        <mxCell id="QLm1vupBQiNg1NUSUBey-46" value="" style="endArrow=classic;html=1;rounded=1;fontSize=24;exitX=0.5;exitY=1;exitDx=0;exitDy=0;entryX=0.5;entryY=0;entryDx=0;entryDy=0;" parent="1" source="QLm1vupBQiNg1NUSUBey-1" target="QLm1vupBQiNg1NUSUBey-10" edge="1">
          <mxGeometry width="50" height="50" relative="1" as="geometry">
            <mxPoint x="109.62" y="110" as="sourcePoint" />
            <mxPoint x="109" y="160" as="targetPoint" />
          </mxGeometry>
        </mxCell>
        <mxCell id="QLm1vupBQiNg1NUSUBey-48" value="" style="endArrow=classic;html=1;rounded=1;fontSize=24;exitX=1;exitY=0.5;exitDx=0;exitDy=0;entryX=0;entryY=0.375;entryDx=0;entryDy=0;entryPerimeter=0;" parent="1" source="QLm1vupBQiNg1NUSUBey-13" target="QLm1vupBQiNg1NUSUBey-5" edge="1">
          <mxGeometry width="50" height="50" relative="1" as="geometry">
            <mxPoint x="230.32999999999998" y="585" as="sourcePoint" />
            <mxPoint x="240" y="540" as="targetPoint" />
          </mxGeometry>
        </mxCell>
        <mxCell id="QLm1vupBQiNg1NUSUBey-49" value="" style="endArrow=classic;html=1;rounded=0;fontSize=18;entryX=1;entryY=0.5;entryDx=0;entryDy=0;exitX=-0.014;exitY=0.372;exitDx=0;exitDy=0;exitPerimeter=0;" parent="1" source="QLm1vupBQiNg1NUSUBey-26" target="QLm1vupBQiNg1NUSUBey-16" edge="1">
          <mxGeometry width="50" height="50" relative="1" as="geometry">
            <mxPoint x="978" y="380" as="sourcePoint" />
            <mxPoint x="978.4000000000001" y="523.6000000000004" as="targetPoint" />
          </mxGeometry>
        </mxCell>
        <mxCell id="QLm1vupBQiNg1NUSUBey-50" value="Send Queries" style="text;html=1;align=center;verticalAlign=middle;resizable=0;points=[];autosize=1;strokeColor=none;fillColor=none;fontSize=24;" parent="1" vertex="1">
          <mxGeometry x="1120" y="560" width="160" height="30" as="geometry" />
        </mxCell>
        <mxCell id="xBuPPBvkNrvAB6S6MzlM-3" value="" style="endArrow=classic;html=1;rounded=1;fontSize=24;exitX=0;exitY=0.5;exitDx=0;exitDy=0;entryX=1;entryY=0.545;entryDx=0;entryDy=0;entryPerimeter=0;" parent="1" source="QLm1vupBQiNg1NUSUBey-16" target="QLm1vupBQiNg1NUSUBey-8" edge="1">
          <mxGeometry width="50" height="50" relative="1" as="geometry">
            <mxPoint x="880" y="580" as="sourcePoint" />
            <mxPoint x="820" y="560" as="targetPoint" />
          </mxGeometry>
        </mxCell>
        <mxCell id="kDcWoAi_TzpZwLmm5Dsw-2" value="&lt;b style=&quot;font-size: 18px&quot;&gt;cassandra&lt;/b&gt;" style="shape=cylinder3;whiteSpace=wrap;html=1;boundedLbl=1;backgroundOutline=1;size=15;fillColor=#dae8fc;strokeColor=#6c8ebf;" vertex="1" parent="1">
          <mxGeometry x="190" y="260" width="100" height="130" as="geometry" />
        </mxCell>
        <mxCell id="kDcWoAi_TzpZwLmm5Dsw-3" value="Time series Db" style="text;html=1;align=center;verticalAlign=middle;resizable=0;points=[];autosize=1;strokeColor=none;fillColor=none;fontSize=24;" vertex="1" parent="1">
          <mxGeometry x="140" y="400" width="180" height="30" as="geometry" />
        </mxCell>
        <mxCell id="kDcWoAi_TzpZwLmm5Dsw-8" value="&lt;span style=&quot;font-size: 18px&quot;&gt;&lt;b&gt;Kinesis&lt;/b&gt;&lt;/span&gt;" style="strokeWidth=2;html=1;shape=mxgraph.flowchart.direct_data;whiteSpace=wrap;fillColor=#f8cecc;strokeColor=#b85450;" vertex="1" parent="1">
          <mxGeometry x="30" y="290" width="120" height="80" as="geometry" />
        </mxCell>
        <mxCell id="kDcWoAi_TzpZwLmm5Dsw-9" value="" style="endArrow=classic;html=1;rounded=1;fontSize=24;entryX=0;entryY=0;entryDx=0;entryDy=90;entryPerimeter=0;exitX=0.996;exitY=0.812;exitDx=0;exitDy=0;exitPerimeter=0;" edge="1" parent="1" source="kDcWoAi_TzpZwLmm5Dsw-8" target="kDcWoAi_TzpZwLmm5Dsw-2">
          <mxGeometry width="50" height="50" relative="1" as="geometry">
            <mxPoint x="119.99999999999977" y="170" as="sourcePoint" />
            <mxPoint x="119.99999999999977" y="250" as="targetPoint" />
          </mxGeometry>
        </mxCell>
      </root>
    </mxGraphModel>
  </diagram>
</mxfile>
